<svg width="52" height="52" viewBox="0 0 52 52" fill="none" xmlns="http://www.w3.org/2000/svg">
<path d="M10.8071 24.7582C10.807 24.4678 10.8643 24.1803 10.9757 23.9121C11.0871 23.6439 11.2503 23.4004 11.456 23.1955C11.6618 22.9906 11.9059 22.8284 12.1745 22.7182C12.4431 22.608 12.7308 22.552 13.0211 22.5533L16.6917 22.5654C17.2769 22.5654 17.8382 22.7979 18.252 23.2119C18.6659 23.6259 18.8984 24.1874 18.8984 24.7729V38.6576C19.3119 38.535 19.8422 38.4044 20.4231 38.268C20.8265 38.1731 21.186 37.9446 21.4433 37.6197C21.7006 37.2947 21.8407 36.8924 21.8408 36.4779V19.2551C21.8407 18.9651 21.8978 18.678 22.0087 18.4101C22.1196 18.1423 22.2821 17.8989 22.4871 17.6938C22.692 17.4888 22.9353 17.3261 23.2031 17.2151C23.4708 17.1042 23.7578 17.047 24.0477 17.047H27.7255C28.3108 17.0471 28.872 17.2797 29.2858 17.6937C29.6996 18.1077 29.9322 18.6691 29.9323 19.2545V35.2401C29.9323 35.2401 30.8527 34.8672 31.7499 34.4885C32.0831 34.3475 32.3674 34.1115 32.5674 33.8099C32.7674 33.5084 32.8742 33.1546 32.8745 32.7927V13.7353C32.8744 13.4454 32.9315 13.1584 33.0424 12.8905C33.1533 12.6227 33.3158 12.3793 33.5207 12.1744C33.7256 11.9694 33.9688 11.8068 34.2366 11.6958C34.5043 11.5849 34.7912 11.5278 35.081 11.5278H38.7589C39.3441 11.5278 39.9054 11.7603 40.3193 12.1743C40.7332 12.5883 40.9657 13.1498 40.9658 13.7353V29.428C44.1544 27.1164 47.386 24.3359 49.9504 20.9926C50.3225 20.5073 50.5687 19.9375 50.6671 19.3338C50.7655 18.7302 50.7129 18.1116 50.5142 17.5332C48.779 12.4746 45.5243 8.07557 41.195 4.93763C36.8656 1.7997 31.6731 0.0760482 26.3273 0.00235712C11.9121 -0.191356 -0.00129132 11.58 0.000124732 26.0021C-0.0140293 30.5657 1.17664 35.0522 3.45175 39.0078C3.7655 39.5489 4.22709 39.9891 4.78228 40.2768C5.33747 40.5645 5.96322 40.6878 6.586 40.6321C7.28181 40.5708 8.14808 40.4842 9.17791 40.3633C9.62614 40.3123 10.04 40.0981 10.3406 39.7616C10.6411 39.4251 10.8075 38.9897 10.808 38.5384V24.7582" fill="black"/>
<path d="M10.7272 47.026C14.604 49.8473 19.1854 51.5407 23.9646 51.919C28.7437 52.2973 33.5343 51.3456 37.8064 49.1693C42.0784 46.9931 45.6654 43.677 48.1704 39.588C50.6755 35.499 52.0009 30.7965 52.0002 26.0007C52.0002 25.402 51.9724 24.8101 51.9324 24.2213C42.4374 38.3868 24.906 45.0092 10.7271 47.0266" fill="black"/>
</svg>
