<svg width="90" height="90" viewBox="0 0 90 90" fill="none" xmlns="http://www.w3.org/2000/svg">
<path fill-rule="evenodd" clip-rule="evenodd" d="M90 45C90 69.8514 69.8513 90 45 90C20.1487 90 0 69.8514 0 45C0 20.1486 20.1487 0 45 0C69.8567 0 90 20.1486 90 45ZM22.2012 46.512L22.3953 46.2069L34.1016 27.8939C34.2727 27.6257 34.6748 27.6535 34.8042 27.9447C36.76 32.3277 38.4475 37.7786 37.657 41.1721C37.3193 42.5683 36.3948 44.4593 35.3545 46.2069C35.2205 46.4612 35.0725 46.7109 34.9153 46.9513C34.8909 46.988 34.8608 47.0197 34.8264 47.0457C34.8044 47.0623 34.7808 47.0767 34.7559 47.0885C34.7026 47.1136 34.6436 47.127 34.5825 47.127H22.5432C22.2195 47.127 22.03 46.7756 22.2012 46.512ZM74.3799 52.8137V49.9149C74.3799 49.6467 74.1211 49.4525 73.8667 49.5265L60.177 53.4841C60.1033 53.5026 60.0383 53.5442 59.9875 53.5997C58.4851 55.2594 57.2136 56.3598 56.9224 56.6141C56.0715 57.3353 55.0176 57.7283 53.908 57.7283H48.9517V52.675H52.8909C52.9924 52.675 53.0896 52.638 53.1636 52.5733L53.6721 52.1063C53.8894 51.9075 54.1482 51.6671 54.458 51.3573L54.5342 51.2812C54.6982 51.118 54.8733 50.9435 55.0452 50.7517C55.1646 50.635 55.2825 50.5104 55.3967 50.3834C55.4773 50.294 55.5559 50.2035 55.6323 50.1137C55.8093 49.9236 55.9817 49.7289 56.1548 49.5288C56.2847 49.3786 56.415 49.2254 56.5479 49.0688C56.7698 48.8284 56.9731 48.5556 57.1721 48.2828C57.3938 48.0239 57.6111 47.7327 57.8147 47.4553C57.9067 47.3201 58.0059 47.1832 58.1064 47.0422C58.1677 46.9565 58.2295 46.8693 58.2908 46.7802C58.3696 46.662 58.4485 46.5398 58.5239 46.4178C58.5898 46.3109 58.6531 46.2043 58.7114 46.1006C59.0999 45.4996 59.4282 44.8569 59.7056 44.2143C59.8323 43.9404 59.9336 43.6521 60.032 43.3716L60.0708 43.2619C60.1819 42.9336 60.2742 42.6239 60.3435 42.2956C60.51 41.5235 60.5471 40.756 60.4729 39.9886C60.4546 39.7482 60.436 39.5124 60.3806 39.2904V39.2535C60.3674 39.141 60.3447 39.019 60.3142 38.8994C60.302 38.8519 60.2886 38.8048 60.2742 38.7588C60.1079 38.0098 59.8489 37.2608 59.5205 36.5257C59.4854 36.4394 59.4485 36.3527 59.4104 36.2664C59.3281 36.0797 59.2407 35.8951 59.1555 35.7212C58.8596 35.1711 58.5498 34.6209 58.1985 34.0892C58.1282 33.9774 58.0505 33.8643 57.9734 33.7513C57.9131 33.6632 57.8528 33.5753 57.7961 33.4882C57.6162 33.2107 57.4182 32.9412 57.2207 32.6785C57.1187 32.5429 57.0168 32.4091 56.9177 32.2769C56.6958 31.9856 56.4414 31.6943 56.2012 31.3984C55.9607 31.1071 55.7249 30.8297 55.4846 30.557C54.6245 29.5861 53.7229 28.7076 52.9185 27.9587C52.7705 27.8107 52.6086 27.6628 52.4424 27.5194C51.8181 26.9508 51.2495 26.4561 50.7732 26.0723C50.6296 25.9618 50.5007 25.8529 50.3809 25.7515C50.3 25.6833 50.2234 25.6186 50.1492 25.5591C49.9133 25.3835 49.7285 25.2401 49.5991 25.143C49.562 25.1153 49.5205 25.0968 49.4788 25.0829L48.9517 24.935V20.5706C48.9517 19.8586 48.665 19.2206 48.2073 18.7536C47.7495 18.2866 47.1116 18 46.4089 18C45.0034 18 43.866 19.1512 43.866 20.5706V23.511L43.6025 23.437L42.886 23.2336L42.2339 23.0533C42.2322 23.0533 42.2302 23.0526 42.228 23.0516C42.2249 23.0503 42.2209 23.0487 42.2156 23.0487H42.2017L37.2546 21.7079C37.0374 21.6478 36.8523 21.8836 36.9634 22.0824L37.7539 23.5434C37.8279 23.7283 37.9343 23.9132 38.0269 24.112C38.1562 24.371 38.2856 24.6437 38.4104 24.9165C38.5215 25.1569 38.6323 25.3927 38.762 25.6516C39.0161 26.2203 39.2935 26.8213 39.5664 27.4825L39.5708 27.4922C39.7542 27.9282 39.9375 28.3643 40.0979 28.8186C40.5417 29.9698 40.9626 31.1996 41.3279 32.4618C41.4573 32.864 41.5498 33.2478 41.6606 33.65L41.7114 33.8719C41.8596 34.4591 41.989 35.0416 42.0813 35.6288C42.1226 35.8527 42.1624 36.0709 42.196 36.2873C42.2227 36.4597 42.2454 36.6309 42.2617 36.8031C42.3171 37.2423 42.3728 37.6815 42.3911 38.1207C42.4119 38.3449 42.4268 38.5748 42.4358 38.804C42.4431 38.9861 42.4468 39.1678 42.4468 39.3459C42.4468 40.3723 42.3542 41.3617 42.137 42.2956L42.0964 42.4463C42.0354 42.674 41.9722 42.9102 41.8965 43.1371C41.8413 43.3325 41.7732 43.5279 41.7009 43.7282C41.6516 43.8643 41.6003 44.0027 41.5498 44.1449C41.4758 44.3438 41.4019 44.5472 41.3093 44.746C40.8516 45.8463 40.283 46.9421 39.6958 47.9684C38.8357 49.4895 37.9712 50.8257 37.3657 51.6856C37.2825 51.8104 37.2039 51.9214 37.1345 52.0277C36.9448 52.2959 37.1392 52.675 37.4673 52.675H43.866V57.7283H37.3933C35.655 57.7283 34.0461 56.7435 33.2693 55.167C32.8672 54.3764 32.71 53.5072 32.8025 52.6565C32.8254 52.4022 32.636 52.1618 32.377 52.1618H19.3022C19.0803 52.1618 18.8999 52.3421 18.8999 52.564V52.8322C18.8999 61.1727 25.6362 67.932 33.949 67.932H57.4031C61.7996 67.932 64.2961 63.9255 66.75 59.9877C67.4338 58.89 68.1145 57.7977 68.832 56.799C70.1218 55.0052 73.2241 53.5812 74.1304 53.1928C74.2783 53.1281 74.3799 52.9801 74.3799 52.8137Z" fill="black"/>
</svg>
