<svg width="71" height="71" viewBox="0 0 71 71" fill="none" xmlns="http://www.w3.org/2000/svg">
<path d="M35.5 0C15.8951 0 0 15.8951 0 35.5C0 55.1049 15.8951 71 35.5 71C55.1049 71 71 55.1049 71 35.5C71 15.8951 55.1049 0 35.5 0ZM53.4452 28.5331C53.9866 40.4848 45.0732 53.8091 29.2934 53.8091C24.495 53.8091 20.0309 52.401 16.2708 49.9899C20.7793 50.5224 25.279 49.2681 28.8497 46.4725C25.134 46.4044 21.9952 43.946 20.9095 40.5706C22.2437 40.825 23.5572 40.751 24.7494 40.4256C20.664 39.6032 17.8417 35.923 17.9334 31.9855C19.0812 32.6215 20.3888 33.0032 21.7822 33.0475C17.9985 30.5182 16.9276 25.5215 19.1522 21.7023C23.3412 26.8439 29.604 30.2253 36.6656 30.5803C35.426 25.2671 39.4582 20.1462 44.946 20.1462C47.3866 20.1462 49.5965 21.1787 51.1466 22.8295C53.0814 22.4508 54.9037 21.7408 56.5426 20.7675C55.9066 22.7525 54.5605 24.4151 52.8062 25.4683C54.525 25.2612 56.164 24.8056 57.6845 24.1282C56.5485 25.8381 55.1108 27.335 53.4452 28.5331V28.5331Z" fill="black"/>
</svg>
