<svg width="1075" height="98" viewBox="0 0 1075 98" fill="none" xmlns="http://www.w3.org/2000/svg">
<path d="M0 98H122.355V73.0114H28.2038V0H0V98Z" fill="#C84414"/>
<path d="M175.616 98H229.812C260.642 98 278.615 80.5499 278.615 48.7208C278.615 16.8917 260.642 0 229.812 0H175.616C144.924 0 126.812 16.8917 126.812 48.7208C126.812 80.5499 144.924 98 175.616 98ZM154.049 48.8604C154.049 32.6667 161.929 25.1282 177.137 25.1282H228.291C243.499 25.1282 251.518 32.5271 251.518 48.8604C251.518 65.1937 243.499 72.8718 228.291 72.8718H177.137C162.067 72.8718 154.049 65.0541 154.049 48.8604Z" fill="#C84414"/>
<path d="M337.626 98H434.542V37.2735H333.893V61.8433H407.583V72.8718H339.285C324.492 72.8718 316.612 63.6581 316.612 48.8604C316.612 34.2023 324.492 25.1282 339.285 25.1282H434.542V0H337.626C307.625 0 289.099 18.7066 289.099 49C289.099 79.1538 307.625 98 337.626 98Z" fill="#C84414"/>
<path d="M452.296 98H563.867C583.499 98 593.039 87.1111 593.039 70.4986C593.039 59.1909 588.062 51.2336 578.522 48.7208C587.509 45.7892 592.071 37.5527 592.071 26.245C592.071 10.0513 582.393 0 563.867 0H452.296V98ZM479.394 73.2906V61.1453H559.72C564.42 61.1453 566.079 63.3789 566.079 67.1481C566.079 71.1966 564.42 73.2906 559.72 73.2906H479.394ZM479.394 36.7151V24.5698H558.752C563.452 24.5698 564.973 26.6638 564.973 30.5726C564.973 34.4815 563.452 36.7151 558.752 36.7151H479.394Z" fill="#C84414"/>
<path d="M651.54 98H705.735C736.566 98 754.539 80.5499 754.539 48.7208C754.539 16.8917 736.566 0 705.735 0H651.54C620.847 0 602.736 16.8917 602.736 48.7208C602.736 80.5499 620.847 98 651.54 98ZM629.972 48.8604C629.972 32.6667 637.853 25.1282 653.06 25.1282H704.214C719.422 25.1282 727.441 32.5271 727.441 48.8604C727.441 65.1937 719.422 72.8718 704.214 72.8718H653.06C637.991 72.8718 629.972 65.0541 629.972 48.8604Z" fill="#C84414"/>
<path d="M813.826 98H868.022C898.852 98 916.825 80.5499 916.825 48.7208C916.825 16.8917 898.852 0 868.022 0H813.826C783.134 0 765.023 16.8917 765.023 48.7208C765.023 80.5499 783.134 98 813.826 98ZM792.259 48.8604C792.259 32.6667 800.139 25.1282 815.347 25.1282H866.501C881.709 25.1282 889.728 32.5271 889.728 48.8604C889.728 65.1937 881.709 72.8718 866.501 72.8718H815.347C800.277 72.8718 792.259 65.0541 792.259 48.8604Z" fill="#C84414"/>
<path d="M1026.06 98H1075L991.909 47.8832L1074.72 0H1027.86L958.037 40.9031V0H930.11V98H958.037V56.3989L1026.06 98Z" fill="#C84414"/>
</svg>
