<svg width="336" height="338" viewBox="0 0 336 338" fill="none" xmlns="http://www.w3.org/2000/svg">
<circle cx="167.9" cy="34.9" r="32.9" stroke="black" stroke-width="4"/>
<circle cx="34.9" cy="168.9" r="32.9" stroke="black" stroke-width="4"/>
<circle cx="51.9" cy="101.9" r="32.9" stroke="black" stroke-width="4"/>
<circle cx="100.9" cy="52.9" r="32.9" stroke="black" stroke-width="4"/>
<circle cx="34.9" cy="168.9" r="32.9" stroke="black" stroke-width="4"/>
<circle cx="51.9" cy="101.9" r="32.9" stroke="black" stroke-width="4"/>
<circle cx="100.9" cy="52.9" r="32.9" stroke="black" stroke-width="4"/>
<circle r="32.9" transform="matrix(-1 0 0 1 300.9 168.9)" stroke="black" stroke-width="4"/>
<circle r="32.9" transform="matrix(-1 0 0 1 283.9 101.9)" stroke="black" stroke-width="4"/>
<circle r="32.9" transform="matrix(-1 0 0 1 234.9 52.9)" stroke="black" stroke-width="4"/>
<circle r="32.9" transform="matrix(1 0 0 -1 167.9 302.9)" stroke="black" stroke-width="4"/>
<circle r="32.9" transform="matrix(1 0 0 -1 51.9 235.9)" stroke="black" stroke-width="4"/>
<circle r="32.9" transform="matrix(1 0 0 -1 100.9 284.9)" stroke="black" stroke-width="4"/>
<circle cx="283.9" cy="235.9" r="32.9" transform="rotate(-180 283.9 235.9)" stroke="black" stroke-width="4"/>
<circle cx="234.9" cy="284.9" r="32.9" transform="rotate(-180 234.9 284.9)" stroke="black" stroke-width="4"/>
<circle cx="168" cy="169" r="98" stroke="black" stroke-width="4"/>
</svg>
