<svg width="212" height="212" viewBox="0 0 212 212" fill="none" xmlns="http://www.w3.org/2000/svg">
<path fill-rule="evenodd" clip-rule="evenodd" d="M98.7874 0.99818C90.7574 3.98618 85.3544 10.1692 83.5764 18.4042L82.8684 21.6812L80.9374 19.2262C76.1774 13.1742 66.8284 10.0682 58.5714 11.7962C54.4964 12.6482 52.5674 13.8422 48.4284 18.0732C41.1264 25.5392 39.5864 33.3292 43.5274 42.8702C44.1984 44.4942 44.0034 44.5112 40.6754 43.1202C27.3164 37.5392 11.0394 48.7982 11.0394 63.6202C11.0394 69.9872 13.1394 75.1052 17.6554 79.7392L21.1744 83.3512L17.1854 83.9892C11.9504 84.8262 5.27136 90.0302 2.36536 95.5352C-1.82264 103.471 -0.318642 114.479 5.84236 120.97C9.19336 124.5 15.1394 127.628 18.4994 127.628C21.7574 127.628 21.6964 128.205 18.1174 131.216C10.5254 137.604 8.73136 151.03 14.3384 159.503C15.8334 161.762 18.9314 164.852 21.2224 166.369C24.7844 168.728 26.4124 169.128 32.4634 169.128C36.3554 169.128 40.5134 168.772 41.7034 168.338C43.8544 167.553 43.8584 167.577 42.3874 172.338C37.2814 188.863 54.6074 205.087 71.0354 199.164C75.4354 197.578 82.0394 192.22 82.0394 190.236C82.0394 189.686 80.5764 190.624 78.7894 192.32C74.0104 196.855 69.7974 198.628 63.8014 198.628C52.2964 198.628 43.9444 190.793 43.2574 179.357C42.7914 171.594 45.6524 165.565 51.8864 161.174C57.5504 157.185 66.7674 156.428 72.7164 159.463C82.0504 164.225 86.6274 174.416 83.6944 183.908C82.5734 187.534 82.4644 189.586 83.2404 192.408C86.6104 204.661 94.8144 211.656 105.757 211.606C115.422 211.562 124.655 204.358 127.021 195.017L128.26 190.128L132.534 194.251C143.338 204.672 160.54 201.423 167.595 187.628C169.713 183.487 170.02 173.282 168.133 169.783C166.937 167.569 166.997 167.486 169.203 168.283C170.488 168.748 174.723 169.128 178.615 169.128C184.666 169.128 186.294 168.728 189.856 166.369C202.028 158.309 203.628 140.192 192.961 131.216C189.382 128.205 189.321 127.628 192.579 127.628C198.14 127.628 206.013 121.693 209.425 114.928C211.832 110.155 211.532 101.025 208.789 95.6042C206.025 90.1412 199.229 84.8422 193.893 83.9892L189.904 83.3512L193.423 79.7392C197.939 75.1052 200.039 69.9872 200.039 63.6202C200.039 48.6492 183.896 37.4832 170.403 43.1202C167.074 44.5112 166.88 44.4942 167.557 42.8702C167.956 41.9122 168.713 39.2242 169.238 36.8982C171.246 28.0002 165.042 16.6372 156.125 12.8772C147.978 9.44318 136.151 12.1412 130.639 18.6922L128.192 21.6002L127.495 18.3642C126.596 14.1872 124.358 9.73718 121.672 6.78118C116.505 1.09518 105.798 -1.61082 98.7874 0.99818ZM113.807 3.17618C129.853 9.88018 130.393 33.5382 114.671 40.9982C107.248 44.5212 95.8764 42.4012 90.3374 36.4622C82.9784 28.5722 83.3974 14.2092 91.1994 6.93218C96.6974 1.80318 106.589 0.160179 113.807 3.17618ZM72.7244 14.7182C78.2024 17.3702 82.5474 22.6192 83.9834 28.3192C87.7564 43.3022 74.0924 57.2392 59.1464 53.6542C43.6094 49.9262 37.5834 30.2292 48.6304 19.2832C55.4574 12.5192 64.6034 10.7862 72.7244 14.7182ZM157.068 15.1432C173.65 23.5452 170.707 48.5412 152.537 53.6292C141.412 56.7432 129.548 49.2892 126.904 37.5242C124.774 28.0422 130.598 17.5212 140.069 13.7412C144.704 11.8912 151.807 12.4772 157.068 15.1432ZM96.8074 42.7182C97.7594 42.7682 95.6144 43.6352 92.0394 44.6462C88.4644 45.6562 84.5664 46.7822 83.3784 47.1492C81.2174 47.8152 81.2174 47.8142 83.6284 43.0522C84.9544 40.4322 86.0394 37.3172 86.0394 36.1302C86.0394 34.2382 86.5984 34.5062 90.5574 38.2992C93.0414 40.6802 95.8544 42.6692 96.8074 42.7182ZM128.563 45.3052C130.264 47.9012 130.258 47.9182 127.909 47.2032C126.606 46.8072 122.723 45.7272 119.281 44.8032L113.024 43.1232L115.99 41.8102C117.622 41.0882 120.213 39.0462 121.748 37.2732L124.539 34.0482L125.693 38.3672C126.327 40.7422 127.619 43.8642 128.563 45.3052ZM42.6554 45.5412C49.3084 48.5622 54.0394 56.4752 54.0394 64.5812C54.0394 69.8622 49.6854 77.9082 45.1144 81.0762C40.4304 84.3222 32.1444 85.4582 26.4334 83.6362C14.8284 79.9342 9.00436 65.3322 14.7214 54.2752C16.6474 50.5512 20.7004 46.7372 24.5394 45.0362C28.9154 43.0972 37.8194 43.3452 42.6554 45.5412ZM189.975 46.9672C194.953 50.2612 199.026 58.0002 199.007 64.1282C198.98 73.1802 191.024 82.9082 182.617 84.1692C169.115 86.1932 158.91 78.7792 157.377 65.8312C156.769 60.6992 159.176 53.3852 162.827 49.2732C168.41 42.9872 182.191 41.8162 189.975 46.9672ZM125.294 47.9312C154.513 58.5372 171.397 87.4922 165.644 117.128C161.091 140.584 143.407 159.234 120.058 165.205C110.341 167.69 93.8044 166.788 84.6784 163.275C63.9594 155.3 49.8734 138.562 45.4794 116.699C43.4944 106.823 43.9784 98.3332 47.1154 87.9962C53.2844 67.6692 71.3914 50.7902 92.0394 46.1192C101.538 43.9702 116.648 44.7932 125.294 47.9312ZM62.2564 55.5092L67.1154 56.1282L60.9364 62.1282C57.5384 65.4282 55.0424 67.3142 55.3894 66.3192C55.9854 64.6142 54.9324 58.1202 53.4214 54.1822C52.8094 52.5862 52.9854 52.5292 55.0664 53.6432C56.3484 54.3292 59.5844 55.1692 62.2564 55.5092ZM157.014 56.1932C156.478 57.6042 156.039 60.8522 156.039 63.4122V68.0652L150.002 62.0972L143.965 56.1282L149.651 55.3952C152.779 54.9922 155.571 54.4302 155.855 54.1452C157.238 52.7622 157.884 53.9042 157.014 56.1932ZM45.9344 86.7172C44.8924 90.0662 44.0394 93.8912 44.0394 95.2172C44.0394 96.5432 43.5894 97.6282 43.0394 97.6282C42.4894 97.6282 42.0394 96.9722 42.0394 96.1702C42.0394 95.3682 40.3364 92.9222 38.2554 90.7342L34.4714 86.7572L38.6204 85.7122C40.9024 85.1372 43.8424 83.7732 45.1544 82.6812C46.4664 81.5882 47.6044 80.6802 47.6844 80.6612C47.7644 80.6432 46.9764 83.3682 45.9344 86.7172ZM172.838 85.6882L177.138 86.9742L174.659 89.0512C173.295 90.1932 171.275 92.6652 170.17 94.5432L168.16 97.9582L167.516 95.0432C167.161 93.4402 166.034 89.5282 165.011 86.3502L163.151 80.5722L165.845 82.4872C167.327 83.5402 170.474 84.9812 172.838 85.6882ZM27.4234 85.7952C33.5544 87.5342 37.9694 91.2822 40.6374 97.0112C44.6574 105.644 43.3834 113.159 36.7304 120.068C26.3684 130.827 9.27536 127.822 2.93536 114.128C-2.15764 103.127 3.99636 89.6172 15.7674 85.9552C20.7084 84.4182 22.4814 84.3942 27.4234 85.7952ZM194.475 85.7162C206.696 88.7932 213.41 102.751 208.143 114.128C201.825 127.775 184.71 130.826 174.416 120.139C163.533 108.839 168.183 90.3692 183.039 85.8882C187.755 84.4652 189.409 84.4412 194.475 85.7162ZM46.8864 127.786L47.9204 130.444L43.7294 128.048C41.4254 126.73 38.3024 125.647 36.7894 125.64C33.2944 125.625 33.3364 125.091 37.0754 121.944C38.7454 120.539 40.8414 117.981 41.7344 116.259L43.3574 113.128L44.6054 119.128C45.2914 122.428 46.3184 126.324 46.8864 127.786ZM174.718 122.378L178.372 125.628H175.375C173.727 125.628 170.389 126.64 167.958 127.878L163.537 130.128L165.229 124.628C166.16 121.603 167.199 117.818 167.54 116.216L168.158 113.304L169.612 116.216C170.411 117.818 172.709 120.591 174.718 122.378ZM39.5364 127.749C47.2084 129.879 54.0284 139.233 54.0284 147.628C54.0284 154.668 49.0994 163.013 43.1414 166.061C35.0824 170.183 24.9194 168.561 18.4854 162.126C3.18836 146.829 18.4554 121.896 39.5364 127.749ZM185.315 128.207C193.081 130.852 199.028 139.276 199.028 147.628C199.028 156.819 191.912 165.618 182.837 167.649C162.608 172.176 148.992 149.089 162.806 133.684C168.736 127.072 176.465 125.191 185.315 128.207ZM64.9534 153.428L68.3664 156.265L64.9514 155.866C63.0724 155.647 59.5914 156.137 57.2154 156.955C53.2404 158.325 52.9514 158.311 53.5834 156.786C55.0804 153.174 56.0704 147.286 55.5214 145.263C55.0894 143.675 55.7864 144.085 58.2404 146.86C60.0544 148.912 63.0754 151.868 64.9534 153.428ZM157.487 156.786C158.127 158.312 157.839 158.325 153.863 156.955C151.487 156.137 148.191 155.625 146.538 155.818C143.617 156.159 143.701 156 149.536 150.148L155.539 144.128L156.166 149.628C156.51 152.653 157.105 155.874 157.487 156.786ZM156.829 159.531C164.008 163.212 168.039 169.9 168.039 178.128C168.039 190.08 159.491 198.628 147.539 198.628C129.886 198.628 120.121 178.689 131.195 165.255C132.86 163.235 135.869 160.712 137.881 159.649C142.805 157.048 151.876 156.991 156.829 159.531ZM91.4814 166.587C97.1084 168.033 97.9894 168.509 96.1324 169.098C94.8724 169.498 92.1284 171.539 90.0344 173.633L86.2264 177.441L85.5594 173.784C85.1934 171.773 84.0084 168.611 82.9284 166.756C81.1104 163.638 81.0974 163.438 82.7514 164.094C83.7344 164.484 87.6634 165.606 91.4814 166.587ZM127.503 168.878C126.158 171.765 125.054 175.016 125.049 176.101C125.04 177.921 124.913 177.893 123.409 175.746C122.513 174.466 119.725 172.116 117.213 170.524C112.698 167.66 112.68 167.627 115.593 167.548C117.213 167.504 120.789 166.66 123.539 165.673C126.289 164.686 128.856 163.822 129.243 163.753C129.63 163.684 128.847 165.991 127.503 168.878ZM117.268 172.181C125.241 177.707 128.543 189.548 124.494 198.082C116.965 213.948 94.0444 213.802 86.4694 197.84C85.2984 195.371 84.9394 192.538 85.2274 188.019C85.7274 180.172 89.3684 174.415 96.0394 170.926C102.519 167.537 111.32 168.057 117.268 172.181Z" fill="black"/>
</svg>
